HIERARCHY
ROOT Hips
{
 OFFSET 0.000000 0.000000 0.000000
 CHANNELS 6 Xposition Yposition Zposition Yrotation Xrotation Zrotation
 JOINT Chest
 {
  OFFSET 0.000000 9.585900 0.002600
  CHANNELS 3 Yrotation Xrotation Zrotation
  JOINT Chest2
  {
   OFFSET 0.000000 9.601200 -0.005300
   CHANNELS 3 Yrotation Xrotation Zrotation
   JOINT Chest3
   {
    OFFSET 0.000000 9.561800 0.000000
    CHANNELS 3 Yrotation Xrotation Zrotation
    JOINT Chest4
    {
     OFFSET 0.000000 9.552100 0.000000
     CHANNELS 3 Yrotation Xrotation Zrotation
     JOINT Neck
     {
      OFFSET 0.000000 14.453000 0.000000
      CHANNELS 3 Yrotation Xrotation Zrotation
      JOINT Head
      {
       OFFSET 0.000000 8.936500 -0.011300
       CHANNELS 3 Yrotation Xrotation Zrotation
       End Site
       {
        OFFSET 0.000000 17.073600 -0.006000
       }
      }
     }
     JOINT RightCollar
     {
      OFFSET -2.921100 9.558500 0.000000
      CHANNELS 3 Yrotation Xrotation Zrotation
      JOINT RightShoulder
      {
       OFFSET -13.519700 0.000000 0.000000
       CHANNELS 3 Yrotation Xrotation Zrotation
       JOINT RightElbow
       {
        OFFSET 0.000000 -29.696600 0.000000
        CHANNELS 3 Yrotation Xrotation Zrotation
        JOINT RightWrist
        {
         OFFSET 0.000000 -24.004700 0.000000
         CHANNELS 3 Yrotation Xrotation Zrotation
         End Site
         {
          OFFSET 0.000000 -17.728500 0.000000
         }
        }
       }
      }
     }
     JOINT LeftCollar
     {
      OFFSET 2.921100 9.558500 0.000000
      CHANNELS 3 Yrotation Xrotation Zrotation
      JOINT LeftShoulder
      {
       OFFSET 13.519700 0.000000 0.000000
       CHANNELS 3 Yrotation Xrotation Zrotation
       JOINT LeftElbow
       {
        OFFSET 0.000000 -29.696600 0.000000
        CHANNELS 3 Yrotation Xrotation Zrotation
        JOINT LeftWrist
        {
         OFFSET 0.000000 -24.004700 0.000000
         CHANNELS 3 Yrotation Xrotation Zrotation
         End Site
         {
          OFFSET 0.000000 -17.728500 0.000000
         }
        }
       }
      }
     }
    }
   }
  }
 }
 JOINT RightHip
 {
  OFFSET -7.771700 -0.012900 -0.001300
  CHANNELS 3 Yrotation Xrotation Zrotation
  JOINT RightKnee
  {
   OFFSET 0.000000 -40.869800 0.001200
   CHANNELS 3 Yrotation Xrotation Zrotation
   JOINT RightAnkle
   {
    OFFSET 0.000000 -39.717900 0.002100
    CHANNELS 3 Yrotation Xrotation Zrotation
    JOINT RightToe
    {
     OFFSET 0.000000 -4.965400 11.033500
     CHANNELS 3 Yrotation Xrotation Zrotation
     End Site
     {
      OFFSET 0.000000 -1.423100 5.872300
     }
    }
   }
  }
 }
 JOINT LeftHip
 {
  OFFSET 7.771700 -0.012900 -0.001300
  CHANNELS 3 Yrotation Xrotation Zrotation
  JOINT LeftKnee
  {
   OFFSET 0.000000 -40.869800 0.001200
   CHANNELS 3 Yrotation Xrotation Zrotation
   JOINT LeftAnkle
   {
    OFFSET 0.000000 -39.717900 0.002100
    CHANNELS 3 Yrotation Xrotation Zrotation
    JOINT LeftToe
    {
     OFFSET 0.000000 -4.965400 11.033500
     CHANNELS 3 Yrotation Xrotation Zrotation
     End Site
     {
      OFFSET 0.000000 -1.423100 5.872300
     }
    }
   }
  }
 }
}
MOTION
Frames: 15
Frame Time: 0.008333
0.000000 85.388000 0.000000 0.000000 -5.767877 0.000000 0.000000 11.653817 0.000000 0.000000 -5.885947 0.000000 0.000000 -0.000000 0.000000 0.000000 -0.000000 0.000000 0.000000 12.528835 0.000000 0.000000 0.711642 0.000000 0.000000 -0.000000 0.000000 0.000000 0.000000 -90.000000 0.000000 -2.309062 0.000000 0.000000 2.309062 0.000000 0.000000 -0.000000 0.000000 0.000000 -0.000000 90.000000 0.000000 -2.309062 0.000000 0.000000 2.309062 0.000000 0.000000 8.520406 0.000000 0.000000 1.905762 0.000000 -0.000000 -4.658285 0.000000 0.000000 -0.000000 0.000000 0.000000 8.520406 0.000000 0.000000 1.905762 0.000000 -0.000000 -4.658285 0.000000 0.000000 -0.000000 0.000000
-27.529909 50.378967 26.755307 163.520574 -8.027332 -0.207385 3.147541 6.804282 0.590449 0.149142 0.308339 -0.010755 0.235423 0.540263 -0.017069 2.954889 6.494268 -0.057732 2.137080 19.660296 -0.327776 4.055601 0.757332 -1.245361 3.518971 6.780573 1.204733 -8.945330 -12.647656 -5.712814 -34.629261 -63.126275 55.524123 -4.139756 -2.089376 -22.672017 -4.762905 2.580764 -0.421081 21.137248 -5.699699 1.804609 36.916703 -70.047444 -56.324359 2.455972 7.078768 14.329732 -5.301295 -72.593124 0.208747 -138.893379 82.508274 -137.601910 -3.169338 -16.562183 -0.204721 -0.249216 0.624473 -0.110577 -6.615893 -76.224384 25.646974 113.497365 79.023294 109.792110 -16.854743 -21.299702 1.242026 -0.233599 -1.016134 -0.107605
-27.529185 50.378872 26.755076 163.517715 -8.030055 -0.210683 3.145341 6.807238 0.594975 0.144456 0.308114 -0.012796 0.239252 0.539901 -0.014636 2.939689 6.493440 -0.059459 2.169469 19.662934 -0.325142 4.087028 0.760440 -1.240471 3.533000 6.781286 1.204273 -8.955393 -12.647511 -5.719893 -34.634110 -63.151416 55.524018 -4.155535 -2.068048 -22.677117 -4.758109 2.583115 -0.421181 21.145931 -5.700120 1.797254 36.908713 -70.049373 -56.309808 2.451708 7.072097 14.327350 -5.303619 -72.590350 0.216905 -138.919229 82.509902 -137.627367 -3.172640 -16.563262 -0.203197 -0.249954 0.623794 -0.111303 -6.642779 -76.216747 25.677144 113.478234 79.021083 109.770236 -16.870560 -21.297962 1.242275 -0.252684 -0.989135 -0.110058
-27.529626 50.378732 26.754193 163.513239 -8.033634 -0.208069 3.147487 6.811462 0.593043 0.139578 0.307474 -0.008956 0.244321 0.539932 -0.017664 2.938283 6.492862 -0.060569 2.197615 19.665818 -0.310807 4.157685 0.769071 -1.227832 3.533524 6.781630 1.204642 -8.979590 -12.651133 -5.727901 -34.630776 -63.150954 55.538485 -4.154601 -2.059699 -22.695790 -4.761464 2.585086 -0.419756 21.138154 -5.702285 1.791518 36.917365 -70.052997 -56.308208 2.449725 7.070777 14.328545 -5.283634 -72.586984 0.204073 -138.919053 82.507608 -137.629655 -3.168469 -16.568006 -0.201845 -0.255708 0.626254 -0.110464 -6.644007 -76.212153 25.679075 113.481744 79.023800 109.774236 -16.883955 -21.289846 1.244387 -0.239273 -0.981401 -0.109577
-27.531285 50.378503 26.752905 163.511202 -8.036430 -0.200862 3.144767 6.814563 0.584587 0.141365 0.308348 -0.009333 0.248092 0.540069 -0.018164 2.932596 6.490915 -0.059583 2.252011 19.671260 -0.288783 4.197826 0.774803 -1.212948 3.529896 6.782637 1.207979 -8.981623 -12.653319 -5.736292 -34.632647 -63.149026 55.547421 -4.140468 -2.028197 -22.821743 -4.762842 2.587265 -0.416134 21.130291 -5.704067 1.787664 36.934288 -70.053960 -56.315775 2.449095 7.067373 14.328243 -5.253173 -72.585216 0.175845 -138.943476 82.506781 -137.654877 -3.172119 -16.574395 -0.202055 -0.257790 0.629180 -0.108929 -6.653273 -76.203761 25.679188 113.471865 79.018174 109.756102 -16.884156 -21.283616 1.246456 -0.253237 -0.982470 -0.115473
-27.531668 50.378233 26.751698 163.506027 -8.040135 -0.203711 3.143835 6.817623 0.585292 0.146633 0.308712 -0.006843 0.237254 0.539069 -0.021045 2.941573 6.491336 -0.057593 2.271363 19.673288 -0.280564 4.217243 0.777433 -1.207670 3.520531 6.782425 1.219720 -8.976606 -12.656087 -5.752676 -34.636915 -63.161865 55.555629 -4.137471 -1.987997 -22.932556 -4.770135 2.591997 -0.412336 21.128658 -5.708126 1.781450 36.954321 -70.055885 -56.337097 2.450444 7.066048 14.340446 -5.250463 -72.581496 0.180527 -138.968526 82.506758 -137.680630 -3.172425 -16.575794 -0.199065 -0.260587 0.627888 -0.112690 -6.672604 -76.198238 25.701458 113.470919 79.018832 109.754628 -16.893614 -21.274577 1.248554 -0.254504 -0.985846 -0.116838
-27.534178 50.377698 26.751246 163.508176 -8.035444 -0.199565 3.136268 6.813132 0.578015 0.144009 0.307901 -0.008902 0.241469 0.539780 -0.018484 2.941127 6.490976 -0.057862 2.280752 19.674198 -0.276696 4.291734 0.787242 -1.185917 3.516284 6.780882 1.224131 -8.974336 -12.656289 -5.758590 -34.624637 -63.182975 55.532907 -4.147095 -1.947013 -23.032118 -4.770171 2.590454 -0.410180 21.119251 -5.707721 1.778297 36.957284 -70.057317 -56.327203 2.451205 7.065181 14.341316 -5.226914 -72.590200 0.156632 -139.001508 82.504159 -137.715116 -3.174884 -16.570698 -0.194888 -0.263748 0.622391 -0.112895 -6.669695 -76.202445 25.694516 113.434328 79.018765 109.724941 -16.946676 -21.254964 1.251065 -0.262280 -0.989475 -0.116736
-27.533309 50.377359 26.750018 163.500372 -8.041366 -0.214435 3.144477 6.818215 0.593730 0.139607 0.308098 -0.010256 0.244594 0.539587 -0.017587 2.940733 6.490020 -0.057561 2.305940 19.677707 -0.264896 4.343479 0.794783 -1.167299 3.510549 6.780427 1.225809 -8.966825 -12.655828 -5.761699 -34.625191 -63.191775 55.526556 -4.137800 -1.901466 -23.162984 -4.771814 2.586667 -0.409336 21.111292 -5.707877 1.774558 36.965874 -70.053822 -56.328534 2.448651 7.063554 14.341441 -5.263835 -72.584148 0.209107 -138.986777 82.500230 -137.705126 -3.173833 -16.562832 -0.187346 -0.267194 0.614618 -0.116411 -6.743072 -76.193993 25.770481 113.426316 79.010129 109.709520 -16.905673 -21.236945 1.253131 -0.260079 -0.996356 -0.125400
-27.534513 50.376769 26.749804 163.498580 -8.038714 -0.221525 3.142796 6.813779 0.600002 0.139835 0.308110 -0.010149 0.241358 0.539392 -0.017333 2.947842 6.490740 -0.054404 2.335541 19.682731 -0.247861 4.366417 0.797483 -1.157679 3.503283 6.780841 1.224845 -8.960608 -12.661224 -5.764483 -34.618402 -63.190702 55.517180 -4.118183 -1.850195 -23.314625 -4.778789 2.582342 -0.411649 21.103462 -5.711256 1.768651 36.959196 -70.053234 -56.339164 2.453932 7.056809 14.359499 -5.273581 -72.585401 0.222585 -138.988737 82.499974 -137.705483 -3.171318 -16.564536 -0.187062 -0.268116 0.616256 -0.116768 -6.778398 -76.193953 25.808786 113.370858 78.995282 109.650042 -16.925542 -21.222002 1.257507 -0.243357 -0.983339 -0.118570
-27.535462 50.376168 26.749660 163.506023 -8.037294 -0.232105 3.131780 6.810702 0.608353 0.139949 0.308363 -0.009957 0.244824 0.540230 -0.017001 2.943784 6.493641 -0.050530 2.347952 19.681982 -0.245588 4.382833 0.798533 -1.151303 3.503618 6.777570 1.222340 -8.963671 -12.671027 -5.769352 -34.595788 -63.199147 55.487592 -4.113707 -1.788767 -23.462916 -4.782212 2.573117 -0.416553 21.092125 -5.716234 1.765144 36.939981 -70.051388 -56.316099 2.457506 7.055360 14.369124 -5.299043 -72.586082 0.246481 -138.998557 82.497429 -137.718158 -3.168987 -16.564380 -0.178979 -0.273405 0.614031 -0.119694 -6.814262 -76.197786 25.843563 113.310009 78.982732 109.596207 -16.971631 -21.194751 1.260133 -0.279714 -0.981555 -0.116864
-27.541571 50.374912 26.752741 163.523725 -8.009564 -0.219810 3.096813 6.779142 0.587299 0.138461 0.308842 -0.009578 0.249728 0.542076 -0.015924 2.934092 6.494951 -0.047345 2.375544 19.685109 -0.236544 4.398826 0.800129 -1.150648 3.520105 6.780098 1.219635 -8.965175 -12.677775 -5.772222 -34.547883 -63.223232 55.418716 -4.132110 -1.730467 -23.599439 -4.767555 2.565917 -0.424161 21.078871 -5.720997 1.767877 36.924684 -70.048438 -56.301765 2.461919 7.054441 14.381561 -5.273844 -72.616102 0.203840 -138.963426 82.494577 -137.688732 -3.168597 -16.570344 -0.170874 -0.270848 0.622629 -0.120822 -6.782302 -76.228669 25.797772 113.197415 78.970149 109.488333 -17.066196 -21.151644 1.280072 -0.196199 -0.987792 -0.110027
-27.543387 50.374377 26.751758 163.536455 -8.013692 -0.223739 3.083109 6.782562 0.589184 0.137310 0.309065 -0.009420 0.246811 0.540178 -0.016937 2.934448 6.496723 -0.043992 2.393630 19.686717 -0.226566 4.428956 0.804222 -1.133921 3.520890 6.783452 1.217863 -8.963228 -12.683094 -5.772707 -34.521923 -63.231564 55.375544 -4.137420 -1.678556 -23.742413 -4.765103 2.561801 -0.428946 21.063999 -5.730561 1.769930 36.906412 -70.040794 -56.291178 2.463505 7.054212 14.378058 -5.291291 -72.612207 0.210310 -138.971426 82.496275 -137.699100 -3.197045 -16.531790 -0.175830 -0.247125 0.585347 -0.106457 -6.801243 -76.228537 25.801114 113.156537 78.951741 109.444398 -17.063211 -21.173107 1.282199 -0.157122 -0.940963 -0.101966
-27.543774 50.373758 26.752075 163.527470 -8.013287 -0.233944 3.088609 6.782331 0.600673 0.139727 0.308626 -0.009697 0.244504 0.540416 -0.016427 2.934111 6.496349 -0.043300 2.419669 19.689733 -0.199617 4.477246 0.810556 -1.102604 3.524128 6.784702 1.215936 -8.964731 -12.688097 -5.771339 -34.494050 -63.232602 55.327945 -4.147472 -1.636023 -23.864306 -4.761945 2.557577 -0.432979 21.056798 -5.734796 1.772487 36.895592 -70.035459 -56.285403 2.461977 7.061566 14.362838 -5.316498 -72.612308 0.251251 -138.964199 82.497686 -137.694742 -3.202745 -16.527761 -0.173276 -0.243049 0.584015 -0.105719 -6.831260 -76.229931 25.836821 113.130866 78.939533 109.419099 -17.028897 -21.157603 1.283435 -0.153580 -0.935162 -0.103586
-27.544820 50.373180 26.751989 163.523599 -8.014017 -0.239339 3.085248 6.784671 0.606800 0.140881 0.308675 -0.010028 0.246265 0.540142 -0.016064 2.937022 6.494924 -0.044210 2.428598 19.691574 -0.186563 4.490302 0.812644 -1.093987 3.521769 6.789087 1.216801 -8.955445 -12.695541 -5.765467 -34.467520 -63.232338 55.278115 -4.165878 -1.604615 -23.963207 -4.770950 2.542850 -0.436947 21.056390 -5.730240 1.780274 36.887468 -70.029469 -56.281218 2.455997 7.063334 14.348225 -5.342223 -72.610554 0.291400 -138.956978 82.498275 -137.696551 -3.222806 -16.529302 -0.168660 -0.232988 0.586794 -0.101885 -6.833192 -76.229888 25.840383 113.103471 78.930042 109.397122 -17.022084 -21.153446 1.284099 -0.141034 -0.920523 -0.098657
-27.544440 50.373002 26.749310 163.501130 -8.031904 -0.245170 3.106688 6.801849 0.616908 0.142267 0.308817 -0.010522 0.244158 0.540227 -0.016103 2.936756 6.495464 -0.040863 2.434031 19.692494 -0.176821 4.492511 0.813453 -1.099747 3.510001 6.795423 1.210877 -8.929928 -12.701493 -5.748442 -34.455283 -63.221182 55.222749 -4.181426 -1.584159 -24.019279 -4.771669 2.534022 -0.440688 21.028371 -5.734612 1.786936 36.883607 -70.020295 -56.278865 2.447177 7.070030 14.330286 -5.342201 -72.592241 0.318291 -138.940266 82.496572 -137.681567 -3.221476 -16.527687 -0.174444 -0.228131 0.586107 -0.097150 -6.826569 -76.211157 25.850824 113.135222 78.927305 109.437580 -16.992906 -21.161142 1.279658 -0.162889 -0.908464 -0.098927
